<svg xmlns="http://www.w3.org/2000/svg" xmlns:xlink="http://www.w3.org/1999/xlink" x="0" y="0" width="701.3333333333334" height="155.33333333333334" style="
        width:701.3333333333334px;
        height:155.33333333333334px;
        background: #FFF;
        fill: none;
">
        
        
        <svg xmlns="http://www.w3.org/2000/svg" class="role-diagram-draw-area" style="overflow: visible;"><g class="shapes-region" style="stroke: black; fill: none;"><g class="composite-shape"><path class="real" d=" M256.33,32.38 Q249.33,32.38 249.33,39.38 L249.33,70.38 Q249.33,80.38 242.33,80.38 Q249.33,80.38 249.33,90.38 M249.33,87.38 L249.33,121.38 Q249.33,128.38 256.33,128.38" style="stroke-width: 1px; stroke: rgb(0, 0, 0); fill: none; fill-opacity: 1;"/></g><g class="composite-shape"><path class="real" d=" M314.33,128.38 Q321.33,128.31 321.26,121.31 L320.94,89.81 Q320.83,79.81 327.83,79.74 Q320.83,79.81 320.73,69.81 M320.76,72.81 L320.41,38.31 Q320.33,31.31 313.33,31.38" style="stroke-width: 1px; stroke: rgb(0, 0, 0); fill: none; fill-opacity: 1;"/></g><g/></g><g/><g/><g/></svg>
        <svg xmlns="http://www.w3.org/2000/svg" xmlns:xlink="http://www.w3.org/1999/xlink" width="700" height="154" style="width:700px;height:154px;font-family:Asana-Math, Asana;background:#FFF;"><g><g><g><g><g><g><g transform="matrix(1,0,0,1,207.66666666666669,86.53333536783853)"><path transform="matrix(0.017,0,0,-0.017,0,0)" d="M9 1C24 -7 40 -11 52 -11C85 -11 124 18 155 65L231 182L242 113C255 28 278 -11 314 -11C336 -11 368 6 400 35L449 79L440 98C404 68 379 53 363 53C348 53 335 63 325 83C316 102 305 139 300 168L282 269L317 318C364 383 391 406 422 406C438 406 450 398 455 383L469 387L484 472C472 479 463 482 454 482C414 482 374 446 312 354L275 299L269 347C257 446 230 482 171 482C145 482 123 474 114 461L56 378L73 368C103 402 123 416 142 416C175 416 197 375 214 277L225 215L185 153C142 86 108 54 80 54C65 54 54 58 52 63L41 91L21 88C21 53 13 27 9 1ZM1164 25L1164 -3C1212 -1 1257 0 1299 0C1339 0 1384 -1 1432 -3L1432 25L1407 27C1366 30 1353 37 1339 61L1168 368L1389 620C1419 653 1428 659 1454 662L1482 664L1482 692L1368 689C1356 689 1342 689 1253 692L1253 664L1286 662C1318 660 1331 655 1331 643C1331 632 1326 623 1308 601L1147 405L1043 604C1034 622 1029 634 1029 642C1029 654 1042 660 1072 662L1109 664L1109 692L1063 691C1022 690 992 689 976 689C959 689 929 690 888 691L843 692L843 664L869 662C918 657 930 650 950 613L1096 343L858 61C843 43 820 31 796 28L768 25L768 -3C817 -1 858 0 893 0C929 0 969 -1 1012 -3L1012 25L980 28C942 32 925 38 925 50C925 58 929 67 935 75L1117 306L1236 80C1245 62 1250 49 1250 40C1250 32 1243 29 1218 29L1202 28Z" stroke="rgb(0,0,0)" stroke-opacity="1" stroke-width="8" fill="rgb(0,0,0)" fill-opacity="1"></path></g></g></g></g></g></g></g><g><g><g><g><g><g><g transform="matrix(1,0,0,1,267.7666829427083,44.533335367838546)"><path transform="matrix(0.017,0,0,-0.017,0,0)" d="M604 347L604 406L65 406L65 347ZM604 134L604 193L65 193L65 134Z" stroke="rgb(0,0,0)" stroke-opacity="1" stroke-width="8" fill="rgb(0,0,0)" fill-opacity="1"></path></g></g><g><g transform="matrix(1,0,0,1,284.22220865885413,44.533335367838546)"><path transform="matrix(0.017,0,0,-0.017,0,0)" d="M271 204L242 77C238 60 236 42 236 26C236 4 245 -9 260 -9C283 -9 324 17 406 85L399 106C375 86 346 59 324 59C315 59 309 68 309 82C309 87 309 90 310 93L402 472L392 481L359 463C318 478 301 482 274 482C246 482 226 477 199 464C137 433 104 403 79 354C35 265 4 145 4 67C4 23 19 -11 38 -11C75 -11 155 41 271 204ZM319 414C297 305 278 253 244 201C187 117 126 59 94 59C82 59 76 72 76 99C76 163 104 280 139 360C163 415 186 433 234 433C257 433 275 429 319 414ZM1259 55C1259 39 1244 30 1216 28L1172 25L1172 -3C1274 0 1274 0 1294 0C1314 0 1314 0 1416 -3L1416 25L1390 28C1343 35 1342 35 1334 80L1247 705L1201 705L828 112C792 56 774 40 740 32L720 27L720 -3C812 0 812 0 832 0C851 0 853 0 939 -3L939 25L887 28C871 29 856 38 856 47C856 55 863 69 882 102L984 277L1230 277L1255 89L1255 86C1255 84 1259 69 1259 55ZM1188 601L1225 313L1009 313Z" stroke="rgb(0,0,0)" stroke-opacity="1" stroke-width="8" fill="rgb(0,0,0)" fill-opacity="1"></path></g></g></g></g></g></g></g><g><g><g><g><g><g><g transform="matrix(1,0,0,1,267.7666829427083,65.53333536783853)"><path transform="matrix(0.017,0,0,-0.017,0,0)" d="M604 347L604 406L65 406L65 347ZM604 134L604 193L65 193L65 134Z" stroke="rgb(0,0,0)" stroke-opacity="1" stroke-width="8" fill="rgb(0,0,0)" fill-opacity="1"></path></g></g><g><g transform="matrix(1,0,0,1,284.22220865885413,65.53333536783853)"><path transform="matrix(0.017,0,0,-0.017,0,0)" d="M235 722L223 733C171 707 135 698 63 691L59 670L107 670C131 670 141 663 141 646C141 639 140 628 139 622L38 71C37 68 37 64 37 61C37 22 85 -11 140 -11C177 -11 228 8 271 39C367 107 433 244 433 376C433 414 424 453 412 468C405 477 392 482 377 482C353 482 323 474 295 460C244 433 211 403 149 324ZM322 424C348 424 361 401 361 352C361 288 340 202 310 137C277 68 237 36 183 36C137 36 112 59 112 101C112 135 127 276 208 361C241 395 293 424 322 424ZM1254 227C1254 337 1170 353 1088 365C1145 385 1170 397 1201 425C1247 464 1270 511 1270 562C1270 644 1212 692 1112 692C1110 692 1100 692 1085 691L1022 690C1010 689 974 689 962 689C943 689 912 690 863 691L811 692L808 664L861 662C885 661 896 653 896 635C896 621 892 589 887 559L800 55C796 37 784 30 742 23L737 -3L774 -2C801 0 816 0 828 0C839 0 865 -1 891 -2L928 -3L948 -4C967 -5 980 -6 988 -6C1103 -6 1254 87 1254 227ZM877 41L928 340L1013 340C1116 340 1166 298 1166 211C1166 108 1093 34 993 34C939 34 918 38 877 41ZM1063 655C1144 655 1184 619 1184 544C1184 439 1110 376 986 376L934 376L983 650C999 650 1040 655 1063 655Z" stroke="rgb(0,0,0)" stroke-opacity="1" stroke-width="8" fill="rgb(0,0,0)" fill-opacity="1"></path></g></g></g></g></g></g></g><g><g><g><g><g><g><g transform="matrix(1,0,0,1,267.7666829427083,86.53333536783853)"><path transform="matrix(0.017,0,0,-0.017,0,0)" d="M604 347L604 406L65 406L65 347ZM604 134L604 193L65 193L65 134Z" stroke="rgb(0,0,0)" stroke-opacity="1" stroke-width="8" fill="rgb(0,0,0)" fill-opacity="1"></path></g></g><g><g transform="matrix(1,0,0,1,284.22220865885413,86.53333536783853)"><path transform="matrix(0.017,0,0,-0.017,0,0)" d="M342 330L365 330C373 395 380 432 389 458C365 473 330 482 293 482C248 483 175 463 118 400C64 352 25 241 25 136C25 40 67 -11 147 -11C201 -11 249 9 304 54L354 95L346 115L331 105C259 57 221 40 186 40C130 40 101 80 101 159C101 267 136 371 185 409C206 425 230 433 261 433C306 433 342 414 342 390ZM700 284C700 90 807 -18 998 -18C1094 -18 1165 5 1255 67C1255 67 1265 103 1265 103C1265 103 1255 110 1255 110C1161 53 1109 35 1031 35C874 35 788 131 788 309C788 447 845 653 1073 653C1144 653 1196 639 1252 603L1252 519L1279 519C1284 576 1292 619 1306 665C1230 694 1173 706 1111 706C931 706 700 578 700 284Z" stroke="rgb(0,0,0)" stroke-opacity="1" stroke-width="8" fill="rgb(0,0,0)" fill-opacity="1"></path></g></g></g></g></g></g></g><g><g><g><g><g><g><g transform="matrix(1,0,0,1,270.7666829427083,107.53333536783853)"><path transform="matrix(0.017,0,0,-0.017,0,0)" d="M124 674C94 674 67 646 67 616C67 586 94 558 123 558C155 558 183 585 183 616C183 646 155 674 124 674ZM124 329C94 329 67 301 67 271C67 241 94 213 123 213C155 213 183 240 183 271C183 301 155 329 124 329ZM124 -26C94 -26 67 -54 67 -84C67 -114 94 -142 123 -142C155 -142 183 -115 183 -84C183 -54 155 -26 124 -26Z" stroke="rgb(0,0,0)" stroke-opacity="1" stroke-width="8" fill="rgb(0,0,0)" fill-opacity="1"></path></g></g></g></g></g></g></g><g><g><g><g><g><g><g transform="matrix(1,0,0,1,336.66666666666663,84.53333536783853)"><path transform="matrix(0.017,0,0,-0.017,0,0)" d="M483 722L471 733C419 707 383 698 311 691L307 670L355 670C379 670 389 663 389 646C389 638 388 629 387 622L359 468C329 477 302 482 277 482C208 482 114 410 68 323C37 265 17 170 17 86C17 21 32 -11 61 -11C88 -11 125 6 159 33C213 77 246 116 313 217L290 126C279 82 274 50 274 24C274 3 283 -9 300 -9C317 -9 341 3 375 28L456 88L446 107L402 76C388 66 372 59 363 59C355 59 349 68 349 82C349 90 350 99 357 128ZM114 59C98 59 89 73 89 98C89 224 135 380 184 418C197 428 216 433 243 433C287 433 316 427 349 410L337 351C300 171 159 59 114 59ZM1008 373L1008 633C1054 629 1081 620 1106 604C1125 591 1129 579 1129 542L1129 500L1161 500C1161 554 1165 593 1174 626C1127 653 1088 663 1008 669C1009 700 1010 712 1012 731L967 731L971 666C920 657 896 649 866 629C809 592 778 532 778 458C778 328 864 309 971 297L971 18C906 25 864 40 836 67C824 79 822 84 822 108L822 172L790 172C787 93 784 63 778 24C843 -2 909 -17 971 -18C969 -82 969 -95 967 -116L1012 -116L1008 -16C1063 -5 1089 5 1122 27C1185 68 1219 132 1219 207C1219 341 1123 361 1008 373ZM1008 292C1106 277 1140 246 1140 173C1140 92 1088 32 1008 18ZM971 379C885 390 853 421 853 494C853 541 869 580 899 604C919 620 935 626 971 630Z" stroke="rgb(0,0,0)" stroke-opacity="1" stroke-width="8" fill="rgb(0,0,0)" fill-opacity="1"></path></g></g></g></g></g></g></g></svg>
</svg>
